<?xml version="1.0" encoding="utf-8"?>
<!-- Generator: Adobe Illustrator 28.0.0, SVG Export Plug-In . SVG Version: 6.00 Build 0)  -->
<svg version="1.1" id="Ebene_1" xmlns="http://www.w3.org/2000/svg" xmlns:xlink="http://www.w3.org/1999/xlink" x="0px" y="0px"
	 viewBox="0 0 490.9 132.3" style="enable-background:new 0 0 490.9 132.3;" xml:space="preserve">
<style type="text/css">
	.st0{enable-background:new    ;}
	.st1{fill:#FFFFFF;}
</style>
<g class="st0">
	<path class="st1" d="M13.9,22.9h5.3l3.3-0.2h9.1l7.4,3.6l0.3-2.5l0.6-1.4l1.1-0.7v-1l-1.5-0.7v-0.6l0.7-0.9l-0.5-1.3h0.7l0.9,0.9
		h0.9l0.6-0.7l-0.6-0.2v-2.1l0.6-0.7l0.7,0.3l1.1,1.5v2.2l-0.3,0.2l0.3,0.7l0.6,0.2v1.1h-0.9v-1.1h-1.1v0.3l-1.7,1.3l0.5,0.5h0.9
		l0.3,0.3h0.6l1,1.1l0.5-0.5h0.8l-0.5,0.9l-0.7,0.5l-0.2,0.7l-0.6-0.7l-0.3-1.1h-1.8l-1.3,1.1l-0.2,0.7l-0.6,0.6v1.8l3.3,7.6
		l1.5,0.3l0.9,0.8l0.9,1.6v-1.6l0.6,0.3v-2.1l-0.6-3.3h-0.9l0.6,0.5v2.5l-0.9-0.3l-1-1.1l0.7-1.3v-1.1l-0.8,0.6v-2.2l-0.6-0.9
		l-0.9-0.2v-0.6l-0.7-0.7l0.5-0.8l1.1,1.1l0.6,0.9l0.8-0.2l0.7-2.5h0.6l0.7,0.3l1-0.7v-1.7l0.3-0.7V19l-0.5,0.6h-0.9l-1.1-1.8
		l1.1-0.6v-0.3h-1l-0.2-1.7l-0.5-0.8l0.6-1l-0.6-0.6l0.6-0.5l0.8,0.7h1.3l0.1-0.3h0.7L50,14l-0.6,1l1,0.3l-0.9,1.1l-1.3,0.3v1.6h0.5
		l0.8-1.6l1.6,1.3l-1.3,1.3l-0.7,0.2v0.3h0.9l0.7-0.3v0.6l0.6,0.3v1.8l-0.6,0.6v0.3h1.4v0.3l-0.2,0.1v0.3l2.2-0.3v-0.6l-0.9-0.5
		v-0.3h2.6v-1.8h-0.3l-0.7,1.1h-1.4v-1.1h-1.5l0.5-0.8l-1-0.6v-0.7l0.2,0.2h0.6l0.3,0.3l0.5-0.5l-0.8-0.8v-1.3h-1.3l0.8-1.3
		l-0.3-1.9l0.2-0.3l0.9,1.3v2.1l0.7,0.6l0.5-0.8h0.7v1.4h0.3l0.8-0.9l-0.1-2.1l0.8-0.5v-0.5l-0.8-1l0.6-0.6l1.1,1.6l0.3-0.3
		l-0.3-0.6l0.8-0.3l-1.1-1.1h-1.3l-1.1,1.3v-1.9l1.4-0.9l1.3,1.1l0.5-0.5h1.7l0.3,0.9l0.6,0.3l-0.6,0.9h-0.6V13l1.5,1.5v0.7
		l-1.3,1.1l1.8,0.3l0.6-0.9L61,14.2v-1.6l0.9-0.2l-0.6-0.2l-0.6-0.7l1.1-0.8L61,10.2l-0.6,0.3l-0.3-0.3L64,8.7l0.7,0.6v0.6l0.9,1
		l1.7-1.6h1.9l0.3-0.6l0.7,0.2l1.5,1.5l1.4-0.8h0.6l-1,2.1l-0.5-0.8l-1.6-0.3l-0.3,0.3l0.5,1.6l-0.5,0.9l0.8,0.9l0.5-2.2l0.7,0.2
		l0.2,0.6l0.3,0.2v1l-1.5,0.7v1.6h-1.5V16l-0.7-1.1l-1,1l0.5,0.9l-0.9,0.6l0.3,0.7h0.9l0.6,0.9v1.1l0.7,0.6v0.9h-0.9v1.6h0.6
		l0.3-0.5l0.5,0.5h0.9l-0.3,1l-0.8-0.7l-0.2,0.8L69.2,24l-0.8,1.7h0.5l0.7,2.3l0.7-0.7l0.3,0.7l-0.8,1.6l0.6,0.7l0.9-0.3l1.1,1.1
		h0.3v-2.8h-0.3l-0.6-0.6v-1.5h-0.3v-0.6l0.7-0.3v-1.3l0.6-0.5l-0.6-0.7l0.3-0.3l-0.3-0.9h-0.9l0.2-0.9l0.9-0.8v-0.3h-1.8v-1.8
		l1.8-2.1h1.3v-0.9l0.8-0.6h0.8l-0.5,0.9h-0.3l-0.2,0.6l0.2,0.3l0.7-0.3l0.8,0.5l-0.5,0.3v1.6h0.6l1-0.6l-0.5,0.9l-1.3,0.3l0.5,1
		l-1.6,0.7v0.2l2.4-0.8V19l0.7-0.3l0.2-0.6h1.9l0.5,1.8l0.7,0.6l-0.3,0.2v1.9h-1.3l0.9-1h-1.8l-0.3-1.7L77,20.7h-1.3l0.3,3h2.4
		l5.5-0.8l0.5-0.5l0.5,0.5h1.1l0.6-0.6v-0.9h0.7v0.9l1.1,0.6l0.6,1.3l-0.6,11.9l0.9,4.9v6.6l0.2,3.3v7.9l0.7,5.6v7l-0.5,2.3l0.5,2.8
		v6.3l1.3,18.7v4.2l0.5,2.3l-0.8,0.7l-3.7-0.1l-9.7,0.8l-0.8,0.3h-1.7l-0.8-1.5v-2.5l-8-28.3l-1.8-3.1l-0.5-3.6l-0.7,1.3l1.7,7.4
		l-1.1,3.6l0.6,5.3l0.6,1.8v2.6l-0.9,2.6l1.9,13.8l-2.3,1.1h-3.9l-2.5-0.9l-6.3,1l-1.1-1v-1.1l0.6-1.8l-1.5-5.4v-4.2l0.3-1.9v-15
		l-0.6-4.5l-0.7-1.8v-3.7l2.3,0.6l1-1l-3.3-0.9v-5.2h-0.9l-0.8,1.5h-0.7l-0.2-0.6h-1.3l-0.2,6.8l0.8,4.6v7l0.6,3.9l-0.6,2.4v5
		l-1.4,4.6l-3.1,3.7l-0.2-0.3l-0.9,0.9l-6.1,3l-0.5-0.8l0.3-0.6l-0.9-1.3h-1.9v1.3l0.3,0.6v0.8l-4.8,1.1l-5.7-0.8l-0.9-0.3h-0.8
		l-0.5-0.7l-0.8,0.5l-1.9-0.6v-0.3h-0.8l-4.2-2.2l-1.5-1.4l-1.8-3.4L4.4,80.1v-7.2L4,71.5v-7.8L3.4,50.3V45l-0.6-2.4l1.1-12
		L13.9,22.9z M9.1,97.6l0.6-1.1H8.8L8.4,97L9.1,97.6z M9.7,95.9h0.3l-0.3-0.3V95.9z M15.8,92.8h1.5v1.7L15.8,95v0.9l-0.9,0.8
		l-2.8,0.3v0.6l0.7,0.3l0.3,0.8l0.9-0.8l1-0.3l0.6,0.5l-1.4,1v0.7h0.8v1.5l-1.4,0.3v1.1h3.9v0.3l-0.9,0.5v0.5h3.3l1.5-1.6l3.1-0.2
		v-0.7h-4v-0.8h1.8l0.7,0.3l1.1-0.3h1.3l-0.5,0.5l0.6,0.9l-1,1h-2.5v2.6l0.3,0.3l0.3-0.9l1.3-0.2l0.6,0.8l0.9-0.2h1.4l1.5-0.5
		l-0.6-0.5v-0.6l1-0.9l-0.3-0.3v-1.3l-0.7-0.8l0.7-0.6h0.6l0.3-0.7l0.8-0.5v2.3h0.9l0.9-0.9h1.5l0.5-0.8l-0.9-0.5L32.7,98l-1.4,0.7
		l-0.3-0.5l0.2-0.6L28,96.4l-0.5-1l3.8,1l1.5-1.1l0.5-0.8L32,93.3l-3.1-0.5v-0.6h-1.9L25.6,91h-1.9l-1.5,0.8V94l-0.8,0.5v0.8h1.3
		l0.6,1.1l-1,1l1,0.9l1.1-0.3l-0.7,0.6l-0.8,1.3h-0.7l-0.6-0.7V98l-0.9-0.9l-2.3-1l1.3-1.3l-0.5-0.5L18,94.9l0.8-1l0.9-0.7l-0.9-0.9
		h-3V92.8z M14.9,70.8h0.9l0.6-0.6l-0.2-0.3h-1l-0.7,0.5L14.9,70.8z M14.9,90.7h1.3v-0.5h-1.3V90.7z M19.7,97.4l0.7,2.1v0.9
		l-0.8-0.7l-0.5,0.5l0.6,0.2v0.3l-1.3,0.6l-0.3,0.9h-3.2l0.9-0.9h1.3l0.2-0.6l1.5-0.9v-2.4H19.7z M17.3,91h1.5l-1.7-1.1l-0.5,0.3
		L17.3,91z M19.4,38.1l-0.2-0.6l-0.7,0.6H19.4z M20.1,85.4v1.1l1.4,1.4l-0.6,2.5h1.3l1.3-1.5V88l-0.8-0.8l1.5-1.3l2.4,0.5l1.6,1.5
		l-0.8,0.5v0.2h2.6l2.5,0.3L31.2,91v0.9h2.1l0.5-1l-0.5-1.5l0.9-1l-0.7-1.5l0.7-1.3v-1.3l-3.2-1.5h-0.8L29,85h-1.4l-1.3-1.3H24
		l-0.6,0.3h-1.3l-1-0.6L20.1,85.4z M20.6,102.5v0.3h-0.2v-0.3H20.6z M20.6,76.2h1.3l0.6-0.6h-1.8V76.2z M22.5,75.1h3.1l0.8-0.9
		l-0.6-0.3h-1.9l-1.4,0.9V75.1z M24.9,103.7l-0.2,0.7h-1L24.9,103.7z M26,38.1l0.7-0.6H26l-1.7,0.6H26z M24.3,88h0.6v-0.3h-0.2
		L24.3,88z M25.2,98.9l-0.6,0.2v-0.2H25.2z M26.7,99.5h0.9v0.3h-1.8v-0.7L26.7,99.5z M29.1,77.8v1.3h1.1v-1L29,76.7l-1.6,0.7
		L29.1,77.8z M28.5,93.5v0.3l-0.3-0.3H28.5z M30.6,94.3l1.5,0.6l-1.5,1l-0.7-1L30.6,94.3z M34.5,80.5h0.2l0.6-0.6h-0.8V80.5z
		 M34.6,90.3l1.1,1.6h2.3v-0.2L36,89.6h-0.9L34.6,90.3z M35,74l0.3,0.5H36l0.3-1.6h-0.8L35,74z M36,101.1l1.4-0.6v-0.7l-1.4,0.9
		V101.1z M36.6,77.5h0.8v-0.7h-0.8V77.5z M40.2,86.5V88l0.9,0.6l1.1-1.8v-2.1h-1L40.2,86.5z M41,22.9h0.3v-0.6L41,22.7V22.9z
		 M43.9,41.8l-0.3,2.5v3h0.8v0.3L43.8,48v1.3l0.9,1l-0.3,0.3l-0.5,1.1l0.5,1.6v10.7l0.7-0.8l1.3,0.7l0.7-1.5h0.9v-8.1l-0.5-8.3
		l-0.8-0.2l0.8-0.8l0.3-1.9l-0.3-2.3L46.2,41v-0.9l-0.3-0.9l-1.7-1.7l-0.6-0.9h-0.5L43.9,41.8z M45.6,50.7l0.2,0.3h0.7v1.3h0.9v0.9
		h-0.9l-0.7,0.2l-1-0.7l0.7-0.7l-0.7-1.4H45.6z M46.2,14.8l0.3,0.9l1,0.9l0.7-1.3l-0.7,0.5L46.3,14l-0.5,0.5L46.2,14.8z M46.9,28.7
		h0.2l0.6-0.6l-0.6-0.9L46.9,28.7z M54.3,19.6v-0.2l-0.6,0.2H54.3z M55.8,17.8h0.6l-0.2-0.3h-0.3V17.8z M56.2,15.1l0.6-0.3h-0.3
		L56.2,15.1z M56.2,19.6h0.6v-0.9h-0.6V19.6z M57.3,7.7L58,6.9l0.7,0.7h0.2V6.9h0.6l0.2,0.3l0.7,0.3v1.7h-0.7l-0.2-0.5L58.3,8
		l-0.9,0.5l-1-0.7V7.2L57.3,7.7z M56.7,22.7h0.7v-0.3L56.7,22V22.7z M57.8,20.9l1.4-0.7l-0.5-0.6V19l0.5-0.6v-0.3l-2.1,1.8
		L57.8,20.9z M57.4,18.5l0.2-0.3h-0.2V18.5z M58.9,11.8v-0.3h-0.2L58.9,11.8z M61.3,17.2h0.6l0.9-0.7h-0.9L61.3,17.2z M62.6,21.1
		l1.1,0.6v0.9l-1.1-0.9l-0.9,1v0.5l1.1,0.5l1.1,0.1v-1l0.7-0.7l-0.3-0.6l0.9-0.9V19L64,20.5H63L62.6,21.1z M62.8,5.4l1,0.7L65,5.6
		l0.6,0.7L63,6.9l-0.5,0.3l-0.7-1l0.3-0.8H62.8z M63,11.8l0.5,0.7L63,13v0.6l0.5,0.5l0.5-1l0.8-0.7l-1-1.1v-0.6l-0.3-0.3L63,10.5
		V11.8z M63,17.8v1.6l0.3,0.2l0.6-2.2l-0.6-0.2L63,17.8z M63.7,25.3l0.7,3l1.5,0.3l0.2-0.3L65.6,28v-0.2h0.9l0.2-0.3H67l-0.5,1.4
		l1,0.5l-0.5,0.5l0.5,0.8l0.6-0.3v-1.5L68,28.3v-2.4l-1.3-1.1l-0.2,0.6H65v-0.9h-1.3l-0.3,0.3L63.7,25.3z M64,16h0.3v-0.3L64,15.4
		V16z M64.6,14.8l0.9,0.3l0.3-0.9l-0.3-0.3l-0.9,0.3V14.8z M65.9,26.2v0.7h-1.3v-0.7H65.9z M65,31.3l0.5-0.3L65,30.5V31.3z
		 M65.2,32.2l0.3,0.3h0.6l-0.7,0.8l0.7,0.8v0.6l0.3,0.2l0.6-0.5l0.2,0.2l-0.7,0.6l0.7,3.9l0.9,0.3L67,39.9l2.2,3.2l0.9,0.9v0.7
		L69.7,45l0.9,3.6l0.3,3.9l1.8,2.8l1.5,6.3l0.7-1.4l-1.7-8l0.7-3.9l-0.6-1.4l0.3-0.5l0.5-2.3l-0.5-4.8l-0.9-0.5l0.3-0.2v-0.6
		l-0.3-0.3l0.5-0.3l-0.5-1.1l-0.3-2.1h-0.6L70,35.6L68.9,35l-0.3,0.3l0.5,1.1l-1,0.3l-0.5-0.5l0.5-0.5v-0.6l0.9-0.8h0.9l0.5-1.6
		l-0.1-0.3l-1.6,1.6v-0.3l0.3-0.3v-0.9l0.6-0.3l-0.6-0.9l-1.3,1.3H67V32l-1.4-0.5L65.2,32.2z M65.6,13.2l0.6-0.2l-0.6-0.3V13.2z
		 M66.1,19.9l0.3,0.7l0.8-0.5l0.3-1.1L67,18.7l-0.5-1.3h-0.5V19.9z M66.1,30.8h0.3v-0.7l-0.3,0.3V30.8z M66.9,11l1.3,0.6l0.3,0.8
		l0.3-0.9l-0.3-1.3l-1.3,0.3L66.9,11z M67.3,12.4v-0.2H67L67.3,12.4z M67.3,14.8h1.3V14L67,14.4L67.3,14.8z M68,37.7v0.3h-0.3v-0.3
		H68z M68.2,19.9h0.3v-0.3h-0.3V19.9z M69.5,39.8L69.2,41l-0.9-0.8L69.5,39.8z M69.5,14v-0.5l-0.6-0.3l-0.3,0.3L69.5,14z M70.6,36.2
		l-0.8,0.9h-0.6l0.9-0.9H70.6z M69.5,38.6l-0.2,0.2l0.2-0.8V38.6z M69.5,9.9h0.7l-0.7-0.2V9.9z M70.9,42.9l0.3,0.2h-0.7v-0.2H70.9z
		 M72,47.3h-0.7l-0.3-0.6l0.5-0.6L72,47.3z M71.9,36.2v0.6l-0.6-0.2l0.2-0.3H71.9z M71.5,37.5l0.3,0.2v0.3h-0.3l-0.2-0.3L71.5,37.5z
		 M72.2,41v0.3l-0.3-0.6L72.2,41z M72.2,17.9l1.1,0.6l0.3-0.3l-0.2-0.3h-0.7l-0.6-0.3V17.9z M73.1,16.5l0.3,0.3v-0.3l-0.3-0.2V16.5z
		 M73.1,20.5l0.3,0.1l-0.3-0.5V20.5z M74.8,10.2l0.3,0.7h0.3v0.2l-0.7,0.3v0.3h0.7l0.2,0.6L75.2,13l0.3,0.2v0.3h-2.1V13l0.5-0.8
		l-0.3-0.6l0.7-1.4H74.8z M73.9,23.3h0.9V22h-0.9V23.3z M74.8,18.5l0.3-0.3h-0.7L74.8,18.5z M81.5,14.8h0.9l0.3-0.6l0.6,1.1h1.3
		l0.3,0.7l2.6,1.3v0.8l-1.5,1.5l-0.3-0.2l0.6-2.2h-1.1l-1.3-1.3l-1.5,0.6l-1.1-0.8L81,15.1L81.5,14.8z"/>
	<path class="st1" d="M99.4,17.8l8.8,1.3h11.5l1.5-0.3h2.4l2.3,0.7l2.8-0.9l1.4,1.3l-0.5,5.6v5.2l-1.6,0.7l-13.5-1.5l-1.4,1.3
		l0.3,3.6l-1,12.5l0.3,0.3V48l0.6,0.9h-0.8v1.1l1.7,1.1h2.5l0.8-1.5l1.5,1.5l5.4-0.7l1.3,1.4v10.7l-1.3,0.8l-1,0.3l-0.3,0.5
		l-0.8-0.3l-1.4,0.7l-0.2-0.6l0.6-0.2V63H118v1.1l-1.4,1.6v0.3l0.8,0.2l-1.3,2.1l-1.3-0.7l-0.5,0.9v0.9h-0.9v1.3l0.2,0.5H113v-2.1
		l-0.3-0.2l-0.5,2.6l0.6,3.1l0.8-1.3h0.9v-0.6l-1.3-0.6h1.8l0.9,0.6v0.6l-0.6,0.3l-1.6,1.7v1l-0.8,0.9l-0.9,0.5L111.5,88l-0.5,1.5
		l1.5,1.3l14.8-1l0.9,0.9v2.2l-0.5,2.1l0.6,6.8l-0.5,0.6l-1.4,0.6l-2.6-0.6l-10-0.8l-4.4,0.9l-2.6-0.8h-9.1l-2.9,0.6l-1.3-1.4
		l0.8-5.8v-6l0.6-3.9v-5.5l-0.3-1.7v-5.5l-0.5-1.8L93.9,70l0.9-1l0.7-11.5V46.8l0.8-3.6l-0.8-3.8l1.3-4.8l-0.3-4.1v-9.7l-0.6-2.1
		l0.8-0.9H99.4z M111.7,63v0.7h0.3l0.5-0.5l-0.5-0.8L111.7,63z M113.8,65.6l-0.8,0.8l0.8,0.6h0.3v-2.1l-1.5-0.3l-0.5,0.5L113.8,65.6
		z M113,75h0.2v-0.2L113,75z M115.8,66.9h0.9v-0.2l-0.9-0.6l-0.5,0.5L115.8,66.9z M116,63.7l1.1,0.5v-0.8h-1.4L116,63.7z
		 M119.7,65.8l0.5-0.5l0.7,0.8v0.8l-0.6,0.5l-1.4,2.5h-1v-0.8l1-0.6l-0.9-1.6l0.8-0.8L119.7,65.8z M119.7,66.9h0.3v-0.2h-0.3V66.9z"
		/>
	<path class="st1" d="M153.3,105.2l-0.7,1.5l0.3,0.7h0.9v0.6H153v0.6h0.9v0.6h-1.3l-0.5-0.5l-0.6,0.8l-0.9-0.7l0.8-0.8V107l1.4-2.2
		L153.3,105.2z M156.3,28.8l1.3,1.1h1.7l0.3-0.3l3.6-0.7l7,1.4v7.2l0.6,2.1v2.6l-0.8,2.5l-0.7,3.8l1.4,1.4l9.9-0.9l0.3-0.3l-0.3-0.2
		h0.7l1,1l0.7,1.6v3.9l0.6-0.2l0.2-0.7h2.1v1.4l1.6,0.5V57l0.9-0.6h0.7l-0.5-3l-0.5-0.9l0.6-0.7L188,51h-0.8l0.5-1.6l0.9-0.8h0.6
		l0.3,0.6v-1.4l-2.1,0.6l-0.5,2.2l-0.6-0.5l0.3-0.7l-1.3-0.3v-1.4l-0.2-0.6l0.6-0.9l0.3,0.2v1.3h0.6v-1.8l-0.3-0.3v-1.4h0.6l0.6,1.1
		h1.3v-6.1l-0.2-1.4v-3.2l0.6-5.6l0.6-0.3l-0.8-0.5l-0.3-2.9v-3.6h1.5l1.8-0.8l-1.5-1.4l-2.1-0.2v-0.9l8.8-1.5l3.4,0.8l8.3-0.9
		l5.2,0.7l6,2.3l-3.9,0.9v0.3l1.5,0.7l5.4,0.2l1.6,1.8l3.3,8.1v0.6l0.6,1.3v12.4l-2.5,6.9l-4.6,4.1l3.4,3.1l2.1,3.7l2.2,6.9v13
		l0.6,10v7l0.8,2.4l-1,0.6h-1.8l-2.3-0.7l-11.6,0.7l-0.8-1.5l1-7.7l-1.1-4.8l0.8-3.8l-1.1-8.3l0.6-1.8v-6.8l-0.9-1.4l-3.9-3.8h-3
		v2.5l0.6,4.1v7.2l0.7,1.7v3l-0.7,1.6v3.3l0.6,2.6l-0.6,2.2v4.8l1.3,6.4l-1,0.9l-4.1-0.9l-2.6,0.2h-8.6l-0.9-0.9v-4.2l-0.9-3.3H188
		l-0.3-0.6l0.7-0.3h0.8v-7.6l-0.3-0.8l0.3-0.6v-1l-0.3-0.2l0.3-0.7l-0.3-0.7l0.3-1.4l-0.8-0.3l-0.3,0.7H187l-0.9,0.8l0.9,0.9v0.7
		l-0.3,0.2V85l0.3,0.3l-0.7,0.6l-0.9-0.9l-0.6-3.3h0.3l0.2,0.3l0.3-0.3v-0.6l-0.9-1h1.3l0.8-0.7l-0.8-0.8v-1.1l-0.7-0.7l0.3-1.1
		l0.3-0.3h-1.3l-0.6,0.6v1.6l-0.6,2.1l-0.5,0.3V78l-0.5-0.8l0.5-1.9l0.8-0.3l-0.6-0.8v-1.3l-0.6,0.7h-0.5l0.8-1.6l-0.3-0.3l-0.3,1
		H182v-1.6h-0.3l-0.3,0.6h-0.8l-0.3,0.7l-0.6-0.3h-1.1l0.6,1.6l0.7,0.7l-1.4,1.6h-1.1v1.9L179,78l-0.3-0.6v-0.6l0.3-0.3l0.2,0.3h0.7
		v0.6l-0.3,0.6l0.9-0.2v0.6l0.8,2.1l1.5,0.3l-0.6,0.6l-0.9,0.3v1.7l0.9,0.9l1,0.6l0.2,4l1.4,0.7l0.3-0.7h0.9l0.3,0.7l0.9-0.7v0.7
		l-1.3,0.5V91l-0.5,0.5l0.5,0.5v0.7h-0.8l-0.5,1.1v7.8l-1.6,0.9l-1.3,0.3l0.2,0.7v0.9l-0.6,0.5l-0.5-0.5v-1.3l-0.9-0.8l-2.5,0.5
		l-0.3-0.3l-1.7,0.5l0.6,0.6v0.6h-0.3l-0.9-1.6l0.3-0.2h-2.6l-0.7,0.6l-0.3-0.3H171l0.6,1.3h0.5l0.9-0.6l0.7,0.6v0.3h-0.7l-0.2,0.3
		l0.9,0.8l0.6-1l1.1,1v0.3h-0.9l-2.8,1.1l0.6,0.6l-1.5,0.7l1.7,1.9l-0.8,0.8v1.1l0.7,0.6l-0.3,0.3h-0.6v0.6l-0.7,0.7l0.7,0.6v0.7
		l-0.3,0.8l-0.3-0.3l-0.3,1.3h0.3v0.6l-0.6,0.7l-0.6-0.3l-0.6,0.6v0.5l0.9-0.5l0.3,1.3l-0.9,0.6l-1.4-1.9l-0.9,0.9l0.7,1l-0.3,0.2
		l-0.2-0.2l-0.8,0.6l-1-0.3v-0.7l-2.2-1.4l0.3-1.1l-1-1.8h-0.5l-0.6,0.6v0.6h0.6v0.7l-1.1,0.6l-1,0.9v0.6h-0.6v-2.8l-0.2-0.6
		l0.2-0.6l-1.5-0.9v1.7l-0.6,0.7H156v0.9l1,0.7l-0.3,2.3l-0.3,0.3v1.3h-0.7l-0.3-1.7l0.3-3.8l0.5-0.8l-0.5-0.9V114l-0.5-0.3h0.8
		l0.7,1.6l0.2-0.7l0.3-0.3l-0.3-0.2l1.8-1.1l0.3,0.5l0.2,1.3l0.6,0.3l0.3-0.9l-0.3-0.7v-0.6l0.7,0.2l0.9-0.2l1.3,0.2l-0.3-1.1h-0.9
		l-0.6,0.2v-0.2h-0.3l-0.3-0.9l0.3-0.6l-0.3-0.6v-1l0.3-0.2V108l-1.5,0.2v-1.7l-0.9-0.9l-0.3-0.7l-1.1-0.3v1.3l0.6,0.9l-0.6,0.7
		l0.6,1.1v1.3h0.9v0.9l-0.9,0.9v-0.9l-0.3-0.7l-0.3,1.3l-1.1-0.6v-1.6l0.5-0.5l-0.6-1.8l0.3-0.7l-0.3-1.1l0.7-0.6l1.8-0.3l0.7-1.8
		l1.1,0.6l0.6-0.6v-0.9h-1.7l-2.2,0.6l-0.3,0.6l0.5,0.9l-2.3-1.5l-1.3,0.7l-1.1-0.3l-0.6-1.4l0.3-1l0.9-0.5v-1.7l-0.6-1.8l0.9-1
		l-0.3-1.6h-0.7l0.3-0.6v-0.7l0.6-1.8V74.3l0.9-2.3v-6.5l-0.2-1.5v-6.1l0.8-3.9l-0.8-3.8l1.4-8.3l-0.8-9.3l1.3-3.1L156.3,28.8z
		 M154.8,15.1h2.1l1.6,0.5H169l2.6,0.3h12l0.6-0.3h1.8l1,2.2l-0.5,1.8l-1.3,0.2v0.7l1.3,1.3V27l-0.6,0.7h-4.9l-1.6-0.3h-19l-2.1,0.3
		h-3.6l-0.8-6.2l0.6-0.6l2.9,0.5l1,0.5l2.1-0.8l2.6,0.5l3.1-0.5h3l0.8,0.3h11.1l2.5-1.1l-0.6-0.7h-3.7l-0.5,0.5l-1.9-0.7h-3.3
		l-0.6,0.2h-1.8l-2.2-1l-5.2,0.8h-3l-1.5,0.7l-4.5-0.7v-1.6l-0.9-2.2L154.8,15.1z M159.9,116.1h0.3l0.7-0.6l-1,0.1V116.1z
		 M160.2,106.1l0.3-0.3h-0.3V106.1z M160.6,103.7h0.3l-0.3-0.2V103.7z M161.7,109l0.7-0.2l0.3-0.6l1.4-0.2l-0.6-0.2v-0.3h1.3
		l0.3,0.3h0.9v-1.9h-0.8l-1.4,0.9l-1.5,0.3v0.7h-0.6l-0.5,0.3L161.7,109z M161.5,102.2v3.3h0.3l0.2-0.7l0.8-0.3l0.6-1h-1l-0.3-1
		l1.1-0.2v-0.7h-0.5l-0.3,0.3l-0.6-0.3L161.5,102.2z M162.7,109.8h0.2l-0.2-0.3V109.8z M163,110.9h0.2v-0.2H163V110.9z M163.2,115
		h0.7l-0.7-0.7V115z M165.4,123l0.9,0.8l0.2-0.8h0.3l0.6-0.5h0.3v1.1h-0.6l-0.8,0.9l0.8,0.9l1.5,0.3v-0.7l-0.2-0.3l0.6-1.8l2.4-0.2
		v0.2l-0.9,0.3l-1.1,1.3l-0.3,2.1l-1.3,0.3l1.6,0.6v0.6l-1.3,0.3l-1.1-0.8l0.6-0.6l-0.7-1l-1.1-0.3v-1.1l-2.2-0.5V123H165.4z
		 M163.9,104.9h1.3l1.7-1.7v-0.7h-0.3l-0.2,0.9l-0.9,0.3l-0.6,0.7h-0.9V104.9z M164.5,110l-0.3,1.6l1.6-0.7v-1.5l0.5-0.9h-0.5
		L164.5,110z M164.5,114.6h0.3l0.6-0.6v-0.3h-0.9V114.6z M164.8,102.5h0.6v-0.6h-0.6V102.5z M165.4,115.3l0.3,0.2l0.3-0.2V115h-0.7
		V115.3z M166.4,105.2l0.1-0.7h-0.1V105.2z M167.8,113l-1.4,2.2l1.1,0.5l-0.3,0.7h-0.3l-0.3,0.3h2.2l0.5-2.5l-0.9-2.3L167.8,113z
		 M167.4,105.2l-0.8,0.8l0.6,1.3l-0.7,0.9l0.3,1.3h0.9v1.3l1,0.5l0.7-0.6l-1-0.6l-0.3-0.9l-0.8-0.3l0.5-1.4v-0.7l0.3-0.2v-1.3
		l0.3-0.3v-0.5l-1-0.7V105.2z M166.9,110.7h0.3v-0.3h-0.3V110.7z M167.8,117.6h0.3v-0.2h-0.3V117.6z M169.4,104.1v0.8l-0.7,0.3
		l0.3,0.6v0.9l-0.6,0.7l0.9,0.8h0.8V107l-0.3-0.5l0.7-0.8l-0.6-2.3l-0.6-0.3l-0.3,0.3L169.4,104.1z M168.7,83.4l1.1-2.1l1.8,0.8
		l0.7-0.8l1.5-0.6v-0.7l-0.9-0.9V79l-1.3,0.6l-0.6,0.6h-0.3l-0.2,0.7l-1.1,0.3l-0.7,0.6V83.4z M170.2,89.6h1.3l-0.9-0.9l-0.3-1
		l-1.4,0.5L170.2,89.6z M169.6,83.2l-0.6,0.6v3.7h0.8l0.3-1l0.6-0.2V85h-1.1v-0.7h1.5l1.1,0.8l0.7,1.3l0.3-1.1l1.7,0.6l-0.2-1.5h0.6
		l0.8,0.8l-1,1.3h0.6v0.3l-0.9,0.3l-1.1,1.3l-0.8-0.5l-1.1,0.8v0.9l3.3-0.3l0.5-1.8h1.7l-0.5-0.9l0.5-1.1l-1-0.6l0.5-0.5l0.3-2.1
		l-0.8-0.7l1-0.5V78h-2.4l-0.9,2.1h1.1l0.5,1.7l0.8,0.7l-0.3,0.7l-1.5-0.5v-1.4l-1.1,0.8l-0.9,0.3l0.3,0.3v0.9h-1.3l-0.3-0.9
		l-1.1-0.5L169.6,83.2z M172.1,62.1l-0.9,0.5l0.8,0.8l-0.3,0.3v1.7l0.3-0.2v-0.9l0.5-0.5l0.8,0.7l-0.8,0.5l0.8,0.8l-0.8,0.8
		l-0.6,1.8h-1.3l0.5-1.1l-0.9-0.8l-0.6,1.9v1.8h0.6l0.3,0.6h0.9l1.5,0.8v-0.6l-0.7-0.9l1-1.7l-0.3-1v-0.7h1.1v-1.5l-0.5-0.6l0.8-1.3
		v-0.9h-1.5V61h-1.3L172.1,62.1z M169.6,77.1h0.3v-0.2h-0.3V77.1z M170,109.5h0.2l-0.2-0.7l-0.3,0.3L170,109.5z M170.2,112.4h0.3
		v-0.3H170L170.2,112.4z M170.5,61.5l0.2-0.3h-0.2V61.5z M171.7,121.3h0.3l0.3-0.7h0.6l0.6,1l0.9,0.6h2.8l0.6,0.6v1.1l-0.6,0.3
		l-0.2-0.3v-0.6l-0.7-0.6l-0.6,0.9l0.8,0.3l-1.5,1.5l-0.2,0.6l-0.5-1.3h-0.7v-0.6h0.5l0.8-1.1l-1.6-0.6l-0.6,1.1l-0.3-0.3v-0.8
		l-0.7-0.7h-0.9l-0.2-0.2l0.9-1L171.7,121.3z M171.1,106.1l0.9-0.5v-0.5h-0.9V106.1z M171.7,86v-0.3h-0.2L171.7,86z M171.7,75.9
		l0.3-0.2v-1.1h-0.3V75.9z M172.7,73.8h0.2l-0.2-0.2V73.8z M173.3,118.5l1.1,0.9l1.3,0.2v1.6h-1.3l-0.9-0.6l-0.8-2.2H173.3z
		 M175,107.4l0.9,0.8l-0.6,0.3v0.6l0.3,0.3l-0.3,0.3h-0.5l-0.5,0.9v-0.3l-0.3-0.3v-0.6l-0.7,0.5l-0.5-0.5v-1.3l0.7-0.2l0.5-0.9
		L175,107.4z M175.3,110.9l0.3,0.3l1.5,0.3v1.1l0.8,0.9l-0.8,0.3h-2.1l-0.8,2.1l-0.5-0.6l-0.6-0.2V115l0.6-0.3V113l-0.3-0.8l0.6-0.6
		L175.3,110.9z M173.6,67.4h0.2l-0.2-0.1V67.4z M173.6,73.6h0.8l0.3-0.3h-1.1V73.6z M175,62.5h1.1l0.6-1.3h-1l-1.1,0.3L175,62.5z
		 M174.8,64.9h0.6v-0.3h-0.6V64.9z M174.8,68.4h0.6v-0.7H175L174.8,68.4z M175.3,79.2l-0.3,0.3l-0.2-0.3H175.3z M175,66.9h0.7v-0.8
		L175,66.9z M176.7,113.3l-0.5-1.3h-0.6l-0.7,0.7L176.7,113.3z M175.2,71.6l0.7,0.3l1.3-1.4v-0.7h-0.8L175.2,71.6z M176.6,64.9
		l0.6,1.6v0.9l-0.6,1l0.8-0.5l0.3,2.2l1.4-1.3l-1.1-1.6v-2.1l-0.8-0.9l-0.2-1.8l-1.5,1.4L176.6,64.9z M178.3,85.4l0.3,0.8l0.5-0.9
		l0.5,0.3v0.6l-0.3,0.2l0.5,0.6l-0.5,0.5V88l0.6,0.6l-0.8,0.3l-1-0.9h-1.3l0.5,0.9l-1,0.6l1.3,0.6l2.8-0.5l-0.2-0.7l0.8-0.8l0.6,1.5
		h0.7v-1.9l0.9-0.9l-0.3-0.3l-0.6,0.3l-1.1-0.3l-0.7,1.3v-2.1h1.5l-0.3-0.9l-0.5-0.6l-1.1,0.6l-0.5-0.9h-0.9V85.4z M177.4,104.1
		l1.1,2.6l0.5-0.9l1.5,0.8v1.1l-1.5,0.6l-0.5-0.5l-0.8,0.3l-0.2,0.6l-0.9-1l1.7-0.5l-1.4-1.5v-1.7H177.4z M177.5,80.2l0.5,0.6
		l0.7-0.7l0.3,0.3v2.4h1.1l0.3-0.3l-0.9-0.3v-1.7l0.6-0.3v-0.2l-0.6-0.3l-0.3-0.6l-1.3,0.2L177.5,80.2z M177.8,82.2l0.2-0.1h-0.2
		V82.2z M177.8,87.1h0.6l0.3-0.3H178L177.8,87.1z M178.3,71.4h0.3l0.6-0.6v-0.9h-0.9V71.4z M179.6,66.9l-0.5,0.8l0.8,0.3l0.2-0.8
		l0.9,0.7l1.1-0.6l-0.6-0.5v-0.8l-0.3-0.5l0.3-0.5l-0.5-0.6l-1.1,0.6L179.6,66.9z M180.2,70.8v-0.2h-0.2L180.2,70.8z M182,42.5v2.8
		h-0.7l-1.3-0.7l0.5-0.5l0.7-2.5L182,42.5z M180.9,62.5l0.5-0.2h-1.1L180.9,62.5z M180.9,69.6h0.3V69h-1L180.9,69.6z M180.5,63.7
		l0.8,0.2l0.9-0.3v-0.8h-1.7V63.7z M181.7,68.7h0.3v-0.2h-0.3V68.7z M182,61.9h0.6v-0.7L182,61.9z M183.7,64.9h0.5l-0.5-0.9v-0.7
		l-1,0.6L183.7,64.9z M182.9,59.6l0.8,0.5v0.6l-0.2,0.3l1.1,1.3v1.1l0.7,0.5l-0.5,0.5v0.6l0.9-0.6l1.6-0.5l-0.9,1.8l0.9,2.1
		l-0.7,0.7h-0.6v-0.7h-0.7l-0.6-0.5v-1l0.9,0.5v-0.6l-1.7-0.5l-0.6,1l0.2,0.2h0.3l1.3,1.6l-1.3,1.3l1.1,0.5l0.2,1.1l0.3,0.6
		l-0.6,0.7l-0.3-0.3v-0.7l-0.2,0.3v0.9l1,0.5l-0.5,0.5l0.2,0.3h0.7l0.6,0.7l0.7,0.1l0.2,0.3l1-0.5l0.5,0.8v-0.8l-0.6-1l0.6-0.2v-1.3
		l-0.5-0.9h-2.3v-0.7l1.3-0.8l0.8-0.8l0.6,0.7l-0.7,0.5v0.6h0.8v-2.2h-0.6l-0.2-0.9l-0.3-0.3v-0.5l0.8,0.5l-0.5-1.6l0.8-0.6v-1.5
		l-0.3-0.9l-0.7,0.5l-0.7-1.4l-1.9-1.8l-0.7-0.3l-0.5-1.5l-0.6,0.3h-0.8V59.6z M183.3,62.8h0.8l0.2-0.3l-1-0.2V62.8z M183.5,67.7
		h0.2v-0.3h-0.2V67.7z M183.7,56.7h0.3v-0.3h-0.3V56.7z M185.4,114.6v0.9l-0.6,1.1l-0.2-1.1l-0.6-0.6v-0.7l0.2-0.2L185.4,114.6z
		 M184.6,56.4h1.1l0.3-0.2h-1.5V56.4z M185.4,58.9h0.3v-0.3L185.4,58.9z M187.4,76.9l0.2-0.3v-0.7h-0.7L187.4,76.9z M187.6,58.9h0.9
		l0.2-0.3l-0.5-0.3H187L187.6,58.9z M189.2,46.8l-0.5-1.3l-0.2,0.9l-1.1,0.3H189.2z M187.6,61.2l0.9,1h0.2l-0.2-1.5l0.2-0.7h-0.5
		l-0.7-0.6V61.2z M188.3,72l0.2,0.3l-0.6,0.6l-0.3-0.2V72H188.3z M188.5,78V79l0.7-0.5l-0.5-1L188.5,78z M189.1,66.9l0.3-0.2h-0.3
		V66.9z M197,49.2l0.2-0.2H197V49.2z M201.3,21.1l1.9,0.5l3.4-0.6l2.1,0.8h1.3l1.1-0.7h2.2l0.3-0.3l-0.9-0.2l-0.3-0.3l-7.3-0.7
		l-2.4,0.7l-3-0.6l-0.5,0.2L201.3,21.1z M199.2,29.2h8.9l1.3-0.6v-0.8l-9.4,0.5l-0.8,0.5V29.2z M207.6,33.8h1.1v-0.3h-1.1V33.8z"/>
	<path class="st1" d="M238,17.8l8.8,1.3h11.5l1.5-0.3h2.4l2.3,0.7l2.8-0.9l1.4,1.3l-0.5,5.6v5.2l-1.6,0.7l-13.5-1.5l-1.4,1.3
		l0.3,3.6L251,47l0.3,0.3V48l0.6,0.9h-0.8v1.1l1.7,1.1h2.5l0.8-1.5l1.5,1.5l5.4-0.7l1.3,1.4v10.7l-1.3,0.8l-1,0.3l-0.3,0.5l-0.8-0.3
		l-1.4,0.7l-0.2-0.6l0.6-0.2V63h-3.1v1.1l-1.4,1.6v0.3l0.8,0.2l-1.3,2.1l-1.3-0.7l-0.5,0.9v0.9h-0.9v1.3l0.2,0.5h-0.8v-2.1l-0.3-0.2
		l-0.5,2.6l0.6,3.1l0.8-1.3h0.9v-0.6l-1.3-0.6h1.8l0.9,0.6v0.6l-0.6,0.3l-1.6,1.7v1l-0.8,0.9l-0.9,0.5L250.2,88l-0.5,1.5l1.5,1.3
		l14.8-1l0.9,0.9v2.2l-0.5,2.1l0.6,6.8l-0.5,0.6l-1.4,0.6l-2.6-0.6l-10-0.8l-4.4,0.9l-2.6-0.8h-9.1l-2.9,0.6l-1.3-1.4l0.8-5.8v-6
		l0.6-3.9v-5.5l-0.3-1.7v-5.5l-0.5-1.8l-0.5-0.5l0.9-1l0.7-11.5V46.8l0.8-3.6l-0.8-3.8l1.3-4.8l-0.3-4.1v-9.7l-0.6-2.1l0.8-0.9H238z
		 M250.4,63v0.7h0.3l0.5-0.5l-0.5-0.8L250.4,63z M252.5,65.6l-0.8,0.8l0.8,0.6h0.3v-2.1l-1.5-0.3l-0.5,0.5L252.5,65.6z M251.7,75
		h0.2v-0.2L251.7,75z M254.4,66.9h0.9v-0.2l-0.9-0.6l-0.5,0.5L254.4,66.9z M254.7,63.7l1.1,0.5v-0.8h-1.4L254.7,63.7z M258.3,65.8
		l0.5-0.5l0.7,0.8v0.8l-0.6,0.5l-1.4,2.5h-1v-0.8l1-0.6l-0.9-1.6l0.8-0.8L258.3,65.8z M258.3,66.9h0.3v-0.2h-0.3V66.9z"/>
	<path class="st1" d="M269.8,19.7l-0.5,0.9l-0.3,2.3l-1.4-0.7l0.7-0.8l-0.6-0.6l1-1.1H269.8z M271.5,17.4l0.3-0.3h0.5l0.3,0.6h0.3
		l0.3,1.8l-1.3,0.2l-0.2-0.8l0.2-0.6l-0.2-0.3h-0.9v-0.6H271.5z M281.1,20.4l4.2-1.8L290,18l2.6-1.1l10,2.1l6,4.8l3.9,10.8v4.2
		l-0.6,4.2v6.6l0.8,6.2l-0.8,0.7H310l-2.6-0.9l-10.7,1.1l-1.1-1v-2.2l0.6-2.1l-0.6-3.7l0.5-8.6l-0.9-2.8l0.9-4.7l-0.5-0.8l-1.4-1.5
		h-2.5l-0.6,0.7l-1.5,7.5v4.5l0.3,2.8L289.3,56v6.9l0.3,0.8v3.2l-0.3,0.9v17.6l-3.2,1.6v0.5l1,0.2l1.8-0.6l1.4,5.6l1,1h2.5l1.5-1.5
		V67l1.3-1.1l10.1,0.7l2.2,0.5l2.8-1l0.8,0.9v0.9l-0.9,1.9v7.8l0.5,1.7l-0.5,13.4l-1.3,4.5l-3.9,3.9l-5.8,3.6l-8.3,1.7l-7.5-1.7
		l1.3-0.5l-2.2,0.2l-0.7-0.2l-5.6-3.4l-1.6-1.4l-2.4-5.3l-0.9-4.7v-4.6l1.3-1.3h-0.6l-0.3,0.3h-0.5l0.9-8.7l-0.8-4V62l0.7-2.4v-3.1
		l-0.7-2.6l1-16.3l-0.8-2.5l2.5-9.1l3.7-4.1l0.8-0.6l-0.5-0.3l0.2-0.3L281.1,20.4z M280.6,86.9l-0.5-0.5l-1.4,0.5H280.6z
		 M280.2,85.6h1.6v-0.5h-1.6V85.6z M280.6,95.1h0.6l0.3-0.3l-0.3-0.3h-0.9L280.6,95.1z M281.1,93.9l0.7-0.3v-0.3h-1.3L281.1,93.9z
		 M282.9,93.8l1.6-0.7l-2.1,0.1L282.9,93.8z M289,95.7l1.5,0.5l1,0.8l-1,1.4v1h-1.8l-0.3,0.9l-0.3,0.2l-1-0.3l-2.2,1.3l-1.6,1.8h0.7
		l0.8,0.9l1.6-1.3l1.4-0.3l1.4,0.8v1l0.6-0.2h0.9l0.3,0.3l0.8-0.7h0.3v0.6l0.6-0.6v-1.3l1.6-1.5h-1.3l-0.7-0.6l0.3-0.2h2.2l1.7-3.1
		v-0.9l1-0.9v-1.5l0.5-0.7l-3-0.1v0.8l1.5,0.8v0.7H295l-0.3,0.3h-2.1l-0.6-0.3h-2.4l-0.6-0.2V95.7z M287.4,96.3l1.3-0.6h-1.3V96.3z
		 M297.8,102.6l0.6-0.2V102h-0.6V102.6z M298.3,100.3v1.1h0.9v-0.9l2.2-0.2l0.5-0.7h0.9l0.7-1.3l0.3-0.2l0.6-1.7l-0.6-0.3v-0.9
		l2.1-1.4l-2.4,0.7l-4.2,3.7L298.3,100.3z M300.7,86.9v0.7h0.7l0.2-0.3l1.4-0.9h-2.5L300.7,86.9z M306.7,87.8h0.2l-0.6-0.2
		L306.7,87.8z M306.3,94.8l0.3-0.3h-0.3V94.8z M310.2,34.3h0.3v-0.3L310.2,34.3z"/>
	<path class="st1" d="M320.3,19.7l2.4,0.7l2.8,0.2l0.7,0.7l4.9-1.5h7.3l0.9,0.2h2.4l3.7-0.8l2.9,0.7l7-0.5l2.4-0.8l1.1,2.3l-0.3,6.8
		l0.7,2.1v1.3l-1.5,0.7l-1.5-0.6h-2.5l-2.5,0.7l-1.9-0.3l-0.9-0.5l-0.8,0.8v1.9l0.9-0.5h1.1V34h-1l-0.5,1.7l-0.5,0.6l0.9,2.8h1
		l0.8-0.8l-1.1-1.8l-0.1-1l0.8-0.8h0.8V35l-1,0.6l0.8,0.9h1.5l-0.7,1.8l-0.6,0.5v0.9l-0.7,0.8l1,1.1v0.2l0.8-0.3l-0.8-0.8v-0.3h1.7
		l0.6,0.6v1.8l0.5,0.5l-0.5,0.5l0.9,0.3l0.3-0.7h0.9l0.9-0.6h1.1l-0.2-0.6l0.6-2.2l0.6,0.7h0.7v-0.5l-1.3-0.8v-0.7l-0.9-0.2v-0.6
		l0.6-0.6h1.6v1.5l1.1,0.8v1l-1.4,0.7l-0.5,0.8v1.5l0.7,0.2l1-1l1.1,1.1l0.5-1l0.3,0.3v1.8l-1.1,1l-0.5-0.9l-0.5,0.6h-0.3v-0.3
		l0.8-0.9V44l-1.7,1.1l-0.3,0.7h-0.8l-0.3-1.6l-0.9,0.9h-0.6V46h-0.6l-0.6-0.3l-1.3,0.5l-0.3,0.9l-0.3,0.2v0.7l-0.2,0.2v1.5l0.6,0.6
		l-0.6,0.3l-0.3,1.8l0.8,0.9l-3.4,0.3v-1.5h0.6l1,0.7l0.5-0.5l-0.9-0.9h-0.6v-1.3l-0.6,0.3l-1-0.7l-0.6,1.9h1.1v2.4h1.6v1.5l0.3,0.7
		V57h0.6l0.6-1.3l0.6-0.2l1.5,0.7l1.6-1.7V54l-1.1,0.6l-0.5,0.9l-0.7-0.8l0.7-1.6h-0.6v-1.4l0.9-0.5l1.3,1.5h1.1v-0.3l-0.8-0.9V50
		l-0.9-0.8v-1.7l0.9,0.5l0.5,1.3l0.9,0.2v1.1l-0.6,0.3l1.3,0.3v0.9h-0.7v0.6l-0.6,1.1l0.5,0.5l0.8-1.6l1.3-0.3v-1.1h0.6l0.5,1.5v2.1
		l0.5,0.7l-2.2,1.4v-2.1l-1,2.1l1,0.9h1.4l-0.5-0.8l0.5-0.5l0.7,1.3v2.2h-1.4v1.5l1.5,1.1l1-1l-1.5-0.6l2.2-0.3v-4.9l-0.6-1.3v-2.1
		l0.6-0.6l-0.8-0.5l1.3-1.3l-0.7-0.9h-0.3V50h-0.3l-0.6-1.8V47l1.8-1.8v-3.3l-0.6-0.9h-0.9v-0.6l0.6-0.3l1-4.4l-0.5-7.8l-0.7-2.2
		l1-1h15.5l0.8,0.9l0.6,1.5l-1.3,11.1l0.3,3.4v7.6l-0.3,2.1l1.1,3.6l-0.5,6.6v8l-0.3,1.3V77l0.3,3v13.1l0.7,4.8l-0.9,6.2l1.1,5.8
		l-1.3,1.3h-2.6l-9.9-1.1l-1.9,0.8h-1.3l-0.6-0.9V95.1l-1-2.1h0.5v-0.6l-0.5-1h0.5l0.3,0.3v-0.6l-0.7-0.3v-1.1h0.9l-0.2,0.6h0.6
		v-3.2l-1.5-0.6v-1h1.1l0.3-3.3v-6.4l-0.3-1.1v-1.8h-0.9v-0.6h0.7v-1.5l-1.6-0.3l1.3-0.9V68h-1.8l-0.6-0.2l-0.2,0.2h-1.3v1.3
		l0.2,0.9v1.5h0.3l0.3-0.7l0.9,0.5l0.8,2.3l-0.6,0.3v1.3l0.6,0.5h0.3l0.3,0.3l-0.7,1.3h0.7l0.9-0.7l0.5,0.5l-0.8,0.8h-0.9v0.9l1-0.5
		l0.7,0.7l-0.8,0.7h-1.6v1.5l0.7,0.7l-2.1,1.4v-0.5l0.7-1.1l-1.3-1.3l0.9-0.5l0.2-0.9l0.5-0.3l-0.7-0.5l-1,0.8V80h-0.2v0.7h-0.9
		l-0.8-1.6h-1v0.7l1,0.5l0.7,2.8l1.5,1.5l-1.1,0.7l-1.1-2.5l-1.1,1H354v1.5l-0.3,0.3l-0.3,0.9l0.7,0.8l0.9,0.6v0.9l-3.7-2.5H350
		l-0.5,0.8v1.5h0.9v2.8h-0.6v-0.9l-0.3,0.6v4.6l1.1,6.6l-0.6,1.4l-1.4,0.8h-8.8l-3-0.5l-2.2,1h-1.1l-0.8-1.1l1.4-3.4l-1.4-4.7
		l0.8-2.9v-2.6l-0.7-3.9h-1.5v-1.3l1.6-0.9v-1.5l-1,0.9l-1.1-0.6v-0.3l1.1-0.6h0.7l-0.7-4l-0.6-0.2v-0.3L332,77v-1.7l-0.2-0.3v-1.3
		l-1.5-0.9v-2.5l0.8-0.5h0.7V68h-0.7l-0.2-0.6l-0.9-0.5v-0.3h0.7l0.5,0.6h0.7l0.2-0.6h2.3v-0.9l-0.6-1l0.6-0.5l1.9-0.5l1.8-2.3v-1.7
		h-1.1l-1.8,0.6v0.3l0.6,0.1v0.7h-0.6l-1.9,1.3h-0.8l-0.8-2.2l0.8-0.8v-2.2l-0.5,0.5l-0.5-0.8l0.3-0.7l-0.7-3.8l-0.2-0.3l0.2-0.6
		v-1.6l0.9-0.6l-0.5-0.5l0.7-3.6l-0.6-3.4l-0.8-0.9h-0.6l0.3-1.6l-0.7-0.2l0.9-0.3l0.2-5.4l0.5-1.1l-0.7-0.7l-0.5,0.5l-0.5-0.8
		l-0.9-0.3l-8.6,1.7l-0.8-0.8l-0.6-1.5l0.3-2.8v-2.3l1.5-0.5v-1.6H320l-0.5,0.3l-0.7-1.9v-1.5L320.3,19.7z M320.9,55.5l-0.6,0.2
		l-0.3,1.5l-1.1-1.1v-0.9l1.4-1.5L320.9,55.5z M320,44.9l0.3,0.2h0.6l0.8,2.3l-1,0.9l0.7,1.3h-1.7l-0.2-0.8l0.2-0.9l0.7-0.3v-0.9
		l-1.1-1.5l0.2-0.2H320z M321.2,76.7l1.5,0.5l-1.5,1.5l-1.8,0.2v-0.6l1.1-0.3V77L321.2,76.7z M321.5,50.2l1.3,1.6l0.8,0.3l0.3,0.6
		h0.3v0.6l-1.5,0.9l-0.2-1.5l-1.3-1.3l-0.9-0.6l0.2-0.7H321.5z M321.2,21.5h0.6v-0.2h-0.3L321.2,21.5z M323.9,61.4v1.3h0.3v0.5
		l-0.9,0.5v1.6l-1.5-0.5V64h0.7v-0.7l0.8-0.9v-0.9H323.9z M325.1,46.3l0.6-0.5l0.7,0.8l-1.6,0.3v0.6l0.3,0.6v1l0.3,0.2l-0.6,0.5
		l-2.1-3.6H325.1z M326.4,59.4l1.1,0.8v0.6l-0.6,0.7l0.2,0.3h0.3v0.6l-0.3,0.6l0.3,0.3v0.3h-0.3l-0.7,0.8l-0.6-0.9l1-1.1l-0.6-0.6
		h-0.9l-0.7,0.2l-0.2-0.2l0.2-0.3l-0.2-0.7l1.1-0.1l-0.6-0.7l-0.6,0.3v-0.9H326.4z M327,67.2l0.2,0.8l0.6-0.2l1,0.2v0.6l0.6,0.7v1.1
		l-0.3,0.7l-0.2-0.9l-0.8,0.3l-2.9-1.6l1.3-1.7H327z M329,74v0.6l-1.8,1.5l0.9,0.9v0.7l-0.3,0.2l-0.2-0.6l-0.6,0.5l-0.5-1.1L327,75
		l0.8-0.9H329z M328.5,80l0.9,0.5v-0.7l1-0.3l-0.5,1.5l-1.5,1.3l-0.7,0.3l-0.2-0.6l-0.8-0.5v-0.6l0.5-0.6L328.5,80z M331.8,72.2
		v-0.8l-0.5,0.3L331.8,72.2z M333.1,52.7h0.6v-0.9h-0.9l-0.7,0.3L333.1,52.7z M334.8,66.9h1.3v-0.7l-1.3-0.3V66.9z M335.3,45.2
		l0.7,0.7v-0.9h-0.7V45.2z M337.3,45.2l1.5,2.9l2.4-0.9l-0.6-1.1l-0.3-2.1l-0.3-0.2l-0.3,0.6h-1.5L337.3,45.2z M338.4,68.9l0.2-0.7
		l-0.6,0.3L338.4,68.9z M339,46.3l-0.6,0.3l0.2-0.3H339z M339.4,61.4h1.3l0.6-0.3l-0.9-0.8h-0.9V61.4z M341.8,62.3h0.6v-0.9h-0.6
		V62.3z M343.3,62.3l0.3-0.3h-0.3V62.3z M348.1,57.5h0.3l0.7-0.6l-1-0.6V57.5z M350.1,44.9l-0.9,0.9l-0.8,0.3l0.3,3.2h1.4l-0.9-1
		l1.3-1.4h0.2v0.6l0.6-0.6v-0.7l1.4-2.9l-0.7-0.7v1.1h-1.3l0.6-0.9h-1.1V44.9z M349.2,61.1l0.6-0.5l-1-0.3l-0.3,0.3L349.2,61.1z
		 M348.8,55.1h0.8l-0.8-0.9V55.1z M348.8,66.9h0.8v-0.7l0.3-0.6v-1.5L351,65v0.3h-0.6v0.3l1.1,0.6l0.6,1l0.3-1l1.7-0.2l0.3,0.2h0.7
		v-0.9l-0.5-0.3l-1.1,0.3h-0.9v-0.9l-0.6,0.3h-0.6v-0.3l0.6-0.5h0.9l0.9,0.5v-1.1h-2.4L351,64h-0.6v-1.3l-1.3-0.7h-0.5V66.9z
		 M349.1,82.2l0.1,0.3l0.3-0.3l0.3-2.2h-0.8V82.2z M349.6,41.8h0.3v-0.6l-0.7,0.3L349.6,41.8z M349.6,47.2v0.3h-0.3v-0.3H349.6z
		 M349.2,70.7l0.7,0.3v-0.7h-0.7V70.7z M350.7,72.9l-1.4,1l0.6,3.8h0.2l0.3-1l0.6-0.2v-4l0.7-0.7l-1.5-0.5l-0.3,0.3L350.7,72.9z
		 M349.3,79.5l1-0.5l-0.5-0.5L349.3,79.5z M349.6,59h0.9l0.8,0.9v0.7l-0.8,0.3l-0.3,1l1.1-0.6l1.3,1.3h1.1l1.1-1.1l-0.6-0.5v-0.8
		l-0.6-0.9h1.6v1.3h1.7v-1.3l-0.6-0.7v-1.1l0.9-0.6L357,56l-0.6-0.6l-0.6,0.6h-0.6l-1,0.6l-0.2,0.6l-0.9,0.9v1.8l-0.3,0.5l-0.9-0.5
		l0.8-2.3l-2.8,0.8L349.6,59z M349.6,68.5l0.3-0.3l0.2-0.8l-0.2-0.2l-0.3,0.2V68.5z M349.6,84.6h0.3v-0.3L349.6,84.6z M350.1,60.3
		l0.3-0.3l-0.3-0.2l-0.2,0.2L350.1,60.3z M350.1,69.2l0.3,0.6h0.8l0.3-0.6l-0.6-1h-0.6L350.1,69.2z M351,79.4v0.3h0.6v-0.7l-0.3-0.5
		l-0.8,0.3L351,79.4z M351.3,81.3l-0.8,0.9v1.5l0.8,0.9l-0.2,0.6l0.9-0.6l0.3,0.8l1-0.6l0.3-1.8h0.6l-0.2-1.4h-0.3l-0.3,0.9
		l-1.1-0.5v-1.1l1.4-0.7l-0.8-1l-1.1,1.1L351.3,81.3z M351,51.3l0.6-0.5v-1.5h-0.9L351,51.3z M351.6,82.5l0.3,0.3h-0.7v-0.3H351.6z
		 M353.3,88.5l0.9,0.7l-0.5,0.9h0.8v-0.7h2.4v1.4l1.4,0.5l0.8-0.3h0.6v0.6l-0.9,0.7l-1-0.6l-0.8,0.9l0.3,1.1l-0.9,0.5v-0.7l-0.6,0.2
		l0.6-1.1l-0.2-0.3h-0.9v-1.3l0.2-0.3l-0.3-0.3l-1.5,0.9l1.1,1.6h-1.1v-1l-2.1,0.9v-0.8l0.9-0.9h0.8l-0.2-1.7l-0.3-0.7H353.3z
		 M352.8,70.4l0.3-0.2v-0.7l-0.9-0.5L352.8,70.4z M352.5,57l0.2,0.2l0.9-0.6l-1.1-0.2V57z M353.3,73.1v1.3h-0.6l-0.2,0.2l0.2,0.9
		l1.3,0.6h-1.5l0.3,0.8l-0.3,0.8v0.6l1.3,1.3l2.1-1.6l0.6-0.9l-0.9-0.3l-0.2-1.7l0.9-0.3h1.4l0.9-0.6l-0.9-0.9v-1.3l-1.6-0.9l-1,0.9
		H354L353.3,73.1z M353.1,61.1h-0.3l0.3-0.3V61.1z M353.1,67.2h0.2l-0.2-0.2V67.2z M353.1,71.6h0.6v-0.6h-0.6V71.6z M354.3,77h0.7
		l-0.9,0.8l-0.6-0.3L354.3,77z M353.7,45.5h0.3v-0.6h-0.3V45.5z M356.7,38.9v0.8l-0.8-0.8l-0.3,1.9l-0.9-0.5l-0.7-1.1l0.9-0.9
		L356.7,38.9z M354.3,68.2l-0.2,0.3h0.9v-0.8h-0.3L354.3,68.2z M354.9,64.4l1.3,0.8v-2.3l0.5,0.3l0.5-0.5l-0.9-1l-0.3,0.6l-0.9,0.3
		V64.4z M355.4,66.8l0.5,0.9v2.1l0.6,0.3h-0.2l0.3,0.5l0.8-1.1l-0.5-1.5l0.5-0.2l0.2-0.6h1.1l-0.8-1.1l-1-0.8L355.4,66.8z
		 M356.2,44.6l0.5-0.3v-0.3h-0.5V44.6z M356.2,78.3v0.3l0.2-0.7L356.2,78.3z M357,76.1l0.6,0.3l0.7-0.3l-1.3-0.6V76.1z M357,78.9
		h1.3l-1.3-0.6V78.9z M357.3,58.7h0.6l0.3-0.2l-0.7-0.7h-0.2V58.7z M357.3,61.8l1.1,0.6h0.7l-0.9-0.9v-0.8h-0.9V61.8z M357.3,64.4
		h0.2v-0.2h-0.2V64.4z M358.3,64l0.2-0.7l-0.2-0.3V64z M358.8,54.2h0.9l-0.2-0.9l-0.7,0.2V54.2z M358.8,75.5h0.7l-0.7-0.2V75.5z
		 M359.5,76.7v-0.2l-0.3,0.2H359.5z M359.5,64l1.4,0.5l0.5,0.9l-1,0.7v0.6l0.6,0.6h1.3l0.6-0.6v-0.9h-1.1l1.5-0.8v-2.5l-0.3-0.3
		l-0.2,0.3l0.2,0.3l-0.2,0.6l-0.7,0.3l-0.6-0.7h-1.1l-0.6-0.2V64z M359.5,72.8v1.6l0.6-0.9l-0.3-1L359.5,72.8z M362.2,48.5l0.5-1.3
		l-1.3,0.5L362.2,48.5z M362.5,64l0.2,0.5l-0.2-0.2V64z M362.7,53.3l0.3,0.2v-0.8L362.7,53.3z"/>
	<path class="st1" d="M393.9,22.9h5.3l3.3-0.2h9.1l7.4,3.6l0.3-2.5l0.6-1.4l1.1-0.7v-1l-1.5-0.7v-0.6l0.7-0.9l-0.5-1.3h0.7l0.9,0.9
		h0.9l0.6-0.7l-0.6-0.2v-2.1l0.6-0.7l0.7,0.3l1.1,1.5v2.2l-0.3,0.2l0.3,0.7l0.6,0.2v1.1h-0.9v-1.1h-1.1v0.3l-1.7,1.3l0.5,0.5h0.9
		l0.3,0.3h0.6l1,1.1l0.5-0.5h0.8l-0.5,0.9l-0.7,0.5l-0.2,0.7l-0.6-0.7l-0.3-1.1H422l-1.3,1.1l-0.2,0.7l-0.6,0.6v1.8l3.3,7.6l1.5,0.3
		l0.9,0.8l0.9,1.6v-1.6l0.6,0.3v-2.1l-0.6-3.3h-0.9l0.6,0.5v2.5l-0.9-0.3l-1-1.1l0.7-1.3v-1.1l-0.8,0.6v-2.2l-0.6-0.9l-0.9-0.2v-0.6
		l-0.7-0.7l0.5-0.8l1.1,1.1l0.6,0.9l0.8-0.2l0.7-2.5h0.6l0.7,0.3l1-0.7v-1.7l0.3-0.7V19l-0.5,0.6h-0.9l-1.1-1.8l1.1-0.6v-0.3h-1
		l-0.2-1.7l-0.5-0.8l0.6-1l-0.6-0.6l0.6-0.5l0.8,0.7h1.3l0.1-0.3h0.7L430,14l-0.6,1l1,0.3l-0.9,1.1l-1.3,0.3v1.6h0.5l0.8-1.6
		l1.6,1.3l-1.3,1.3l-0.7,0.2v0.3h0.9l0.7-0.3v0.6l0.6,0.3v1.8l-0.6,0.6v0.3h1.4v0.3l-0.2,0.1v0.3l2.2-0.3v-0.6l-0.9-0.5v-0.3h2.6
		v-1.8h-0.3l-0.7,1.1h-1.4v-1.1H432l0.5-0.8l-1-0.6v-0.7l0.2,0.2h0.6l0.3,0.3l0.5-0.5l-0.8-0.8v-1.3h-1.3l0.8-1.3l-0.3-1.9l0.2-0.3
		l0.9,1.3v2.1l0.7,0.6l0.5-0.8h0.7v1.4h0.3l0.8-0.9l-0.1-2.1l0.8-0.5v-0.5l-0.8-1l0.6-0.6l1.1,1.6l0.3-0.3l-0.3-0.6l0.8-0.3
		l-1.1-1.1h-1.3l-1.1,1.3v-1.9l1.4-0.9l1.3,1.1l0.5-0.5h1.7l0.3,0.9l0.6,0.3l-0.6,0.9h-0.6V13l1.5,1.5v0.7l-1.3,1.1l1.8,0.3l0.6-0.9
		l-0.6-1.5v-1.6l0.9-0.2l-0.6-0.2l-0.6-0.7l1.1-0.8l-0.9-0.5l-0.6,0.3l-0.3-0.3l3.9-1.5l0.7,0.6v0.6l0.9,1l1.7-1.6h1.9l0.3-0.6
		l0.7,0.2l1.5,1.5l1.4-0.8h0.6l-1,2.1l-0.5-0.8l-1.6-0.3l-0.3,0.3l0.5,1.6l-0.5,0.9l0.8,0.9l0.5-2.2l0.7,0.2l0.2,0.6l0.3,0.2v1
		l-1.5,0.7v1.6h-1.5V16l-0.7-1.1l-1,1l0.5,0.9l-0.9,0.6l0.3,0.7h0.9l0.6,0.9v1.1l0.7,0.6v0.9h-0.9v1.6h0.6l0.3-0.5l0.5,0.5h0.9
		l-0.3,1l-0.8-0.7l-0.2,0.8l-0.9-0.5l-0.8,1.7h0.5l0.7,2.3l0.7-0.7l0.3,0.7l-0.8,1.6l0.6,0.7l0.9-0.3l1.1,1.1h0.3v-2.8h-0.3
		l-0.6-0.6v-1.5h-0.3v-0.6l0.7-0.3v-1.3l0.6-0.5l-0.6-0.7l0.3-0.3l-0.3-0.9h-0.9l0.2-0.9l0.9-0.8v-0.3h-1.8v-1.8l1.8-2.1h1.3v-0.9
		l0.8-0.6h0.8l-0.5,0.9h-0.3l-0.2,0.6l0.2,0.3l0.7-0.3l0.8,0.5l-0.5,0.3v1.6h0.6l1-0.6l-0.5,0.9l-1.3,0.3l0.5,1l-1.6,0.7v0.2
		l2.4-0.8V19l0.7-0.3l0.2-0.6h1.9l0.5,1.8l0.7,0.6l-0.3,0.2v1.9h-1.3l0.9-1h-1.8l-0.3-1.7l-0.8,0.8h-1.3l0.3,3h2.4l5.5-0.8l0.5-0.5
		l0.5,0.5h1.1l0.6-0.6v-0.9h0.7v0.9l1.1,0.6l0.6,1.3l-0.6,11.9l0.9,4.9v6.6l0.2,3.3v7.9l0.7,5.6v7l-0.5,2.3l0.5,2.8v6.3l1.3,18.7
		v4.2l0.5,2.3l-0.8,0.7l-3.7-0.1l-9.7,0.8l-0.8,0.3h-1.7l-0.8-1.5v-2.5l-8-28.3l-1.8-3.1l-0.5-3.6l-0.7,1.3l1.7,7.4l-1.1,3.6
		l0.6,5.3l0.6,1.8v2.6l-0.9,2.6l1.9,13.8l-2.3,1.1h-3.9l-2.5-0.9l-6.3,1l-1.1-1v-1.1l0.6-1.8l-1.5-5.4v-4.2l0.3-1.9v-15l-0.6-4.5
		l-0.7-1.8v-3.7l2.3,0.6l1-1l-3.3-0.9v-5.2h-0.9l-0.8,1.5h-0.7l-0.2-0.6h-1.3l-0.2,6.8l0.8,4.6v7l0.6,3.9l-0.6,2.4v5l-1.4,4.6
		l-3.1,3.7l-0.2-0.3l-0.9,0.9l-6.1,3l-0.5-0.8l0.3-0.6l-0.9-1.3h-1.9v1.3l0.3,0.6v0.8l-4.8,1.1l-5.7-0.8l-0.9-0.3h-0.8l-0.5-0.7
		l-0.8,0.5l-1.9-0.6v-0.3h-0.8l-4.2-2.2l-1.5-1.4l-1.8-3.4l-2.4-17.5v-7.2l-0.3-1.4v-7.8l-0.6-13.4V45l-0.6-2.4l1.1-12L393.9,22.9z
		 M389.1,97.6l0.6-1.1h-0.8l-0.5,0.5L389.1,97.6z M389.8,95.9h0.3l-0.3-0.3V95.9z M395.9,92.8h1.5v1.7l-1.5,0.5v0.9l-0.9,0.8
		l-2.8,0.3v0.6l0.7,0.3l0.3,0.8l0.9-0.8l1-0.3l0.6,0.5l-1.4,1v0.7h0.8v1.5l-1.4,0.3v1.1h3.9v0.3l-0.9,0.5v0.5h3.3l1.5-1.6l3.1-0.2
		v-0.7h-4v-0.8h1.8l0.7,0.3l1.1-0.3h1.3l-0.5,0.5l0.6,0.9l-1,1h-2.5v2.6l0.3,0.3l0.3-0.9l1.3-0.2l0.6,0.8l0.9-0.2h1.4l1.5-0.5
		l-0.6-0.5v-0.6l1-0.9l-0.3-0.3v-1.3l-0.7-0.8l0.7-0.6h0.6l0.3-0.7l0.8-0.5v2.3h0.9l0.9-0.9h1.5l0.5-0.8l-0.9-0.5l-0.5-1.1l-1.4,0.7
		l-0.3-0.5l0.2-0.6l-3.2-1.3l-0.5-1l3.8,1l1.5-1.1l0.5-0.8l-1.3-1.1l-3.1-0.5v-0.6H407l-1.4-1.3h-1.9l-1.5,0.8V94l-0.8,0.5v0.8h1.3
		l0.6,1.1l-1,1l1,0.9l1.1-0.3l-0.7,0.6l-0.8,1.3h-0.7l-0.6-0.7V98l-0.9-0.9l-2.3-1l1.3-1.3l-0.5-0.5l-1.1,0.6l0.8-1l0.9-0.7
		l-0.9-0.9h-3V92.8z M394.9,70.8h0.9l0.6-0.6l-0.2-0.3h-1l-0.7,0.5L394.9,70.8z M394.9,90.7h1.3v-0.5h-1.3V90.7z M399.8,97.4
		l0.7,2.1v0.9l-0.8-0.7l-0.5,0.5l0.6,0.2v0.3l-1.3,0.6l-0.3,0.9h-3.2l0.9-0.9h1.3l0.2-0.6l1.5-0.9v-2.4H399.8z M397.3,91h1.5
		l-1.7-1.1l-0.5,0.3L397.3,91z M399.4,38.1l-0.2-0.6l-0.7,0.6H399.4z M400.1,85.4v1.1l1.4,1.4l-0.6,2.5h1.3l1.3-1.5V88l-0.8-0.8
		l1.5-1.3l2.4,0.5l1.6,1.5l-0.8,0.5v0.2h2.6l2.5,0.3l-1.3,2.1v0.9h2.1l0.5-1l-0.5-1.5l0.9-1l-0.7-1.5l0.7-1.3v-1.3l-3.2-1.5h-0.8
		L409,85h-1.4l-1.3-1.3H404l-0.6,0.3h-1.3l-1-0.6L400.1,85.4z M400.7,102.5v0.3h-0.2v-0.3H400.7z M400.7,76.2h1.3l0.6-0.6h-1.8V76.2
		z M402.5,75.1h3.1l0.8-0.9l-0.6-0.3h-1.9l-1.4,0.9V75.1z M404.9,103.7l-0.2,0.7h-1L404.9,103.7z M406.1,38.1l0.7-0.6h-0.7l-1.7,0.6
		H406.1z M404.3,88h0.6v-0.3h-0.2L404.3,88z M405.3,98.9l-0.6,0.2v-0.2H405.3z M406.7,99.5h0.9v0.3h-1.8v-0.7L406.7,99.5z
		 M409.2,77.8v1.3h1.1v-1l-1.3-1.4l-1.6,0.7L409.2,77.8z M408.6,93.5v0.3l-0.3-0.3H408.6z M410.6,94.3l1.5,0.6l-1.5,1l-0.7-1
		L410.6,94.3z M414.5,80.5h0.2l0.6-0.6h-0.8V80.5z M414.7,90.3l1.1,1.6h2.3v-0.2l-2.1-2.1h-0.9L414.7,90.3z M415,74l0.3,0.5h0.7
		l0.3-1.6h-0.8L415,74z M416,101.1l1.4-0.6v-0.7l-1.4,0.9V101.1z M416.6,77.5h0.8v-0.7h-0.8V77.5z M420.3,86.5V88l0.9,0.6l1.1-1.8
		v-2.1h-1L420.3,86.5z M421.1,22.9h0.3v-0.6l-0.3,0.3V22.9z M423.9,41.8l-0.3,2.5v3h0.8v0.3l-0.6,0.3v1.3l0.9,1l-0.3,0.3l-0.5,1.1
		l0.5,1.6v10.7l0.7-0.8l1.3,0.7l0.7-1.5h0.9v-8.1l-0.5-8.3l-0.8-0.2l0.8-0.8l0.3-1.9l-0.3-2.3l-1.3,0.2v-0.9l-0.3-0.9l-1.7-1.7
		l-0.6-0.9h-0.5L423.9,41.8z M425.7,50.7l0.2,0.3h0.7v1.3h0.9v0.9h-0.9l-0.7,0.2l-1-0.7l0.7-0.7l-0.7-1.4H425.7z M426.2,14.8
		l0.3,0.9l1,0.9l0.7-1.3l-0.7,0.5l-1.3-1.8l-0.5,0.5L426.2,14.8z M426.9,28.7h0.2l0.6-0.6l-0.6-0.9L426.9,28.7z M434.4,19.6v-0.2
		l-0.6,0.2H434.4z M435.9,17.8h0.6l-0.2-0.3h-0.3V17.8z M436.2,15.1l0.6-0.3h-0.3L436.2,15.1z M436.2,19.6h0.6v-0.9h-0.6V19.6z
		 M437.3,7.7l0.7-0.8l0.7,0.7h0.2V6.9h0.6l0.2,0.3l0.7,0.3v1.7h-0.7l-0.2-0.5L438.4,8l-0.9,0.5l-1-0.7V7.2L437.3,7.7z M436.8,22.7
		h0.7v-0.3l-0.7-0.3V22.7z M437.8,20.9l1.4-0.7l-0.5-0.6V19l0.5-0.6v-0.3l-2.1,1.8L437.8,20.9z M437.5,18.5l0.2-0.3h-0.2V18.5z
		 M438.9,11.8v-0.3h-0.2L438.9,11.8z M441.4,17.2h0.6l0.9-0.7h-0.9L441.4,17.2z M442.6,21.1l1.1,0.6v0.9l-1.1-0.9l-0.9,1v0.5
		l1.1,0.5l1.1,0.1v-1l0.7-0.7l-0.3-0.6l0.9-0.9V19l-1.3,1.5h-0.9L442.6,21.1z M442.8,5.4l1,0.7l1.1-0.5l0.6,0.7l-2.5,0.6l-0.5,0.3
		l-0.7-1l0.3-0.8H442.8z M443.1,11.8l0.5,0.7l-0.5,0.5v0.6l0.5,0.5l0.5-1l0.8-0.7l-1-1.1v-0.6l-0.3-0.3l-0.3,0.3V11.8z M443.1,17.8
		v1.6l0.3,0.2l0.6-2.2l-0.6-0.2L443.1,17.8z M443.8,25.3l0.7,3l1.5,0.3l0.2-0.3l-0.6-0.3v-0.2h0.9l0.2-0.3h0.3l-0.5,1.4l1,0.5
		l-0.5,0.5l0.5,0.8l0.6-0.3v-1.5l-0.2-0.3v-2.4l-1.3-1.1l-0.2,0.6H445v-0.9h-1.3l-0.3,0.3L443.8,25.3z M444,16h0.3v-0.3l-0.3-0.3V16
		z M444.7,14.8l0.9,0.3l0.3-0.9l-0.3-0.3l-0.9,0.3V14.8z M445.9,26.2v0.7h-1.3v-0.7H445.9z M445,31.3l0.5-0.3l-0.5-0.5V31.3z
		 M445.3,32.2l0.3,0.3h0.6l-0.7,0.8l0.7,0.8v0.6l0.3,0.2l0.6-0.5l0.2,0.2l-0.7,0.6l0.7,3.9l0.9,0.3l-1.1,0.3l2.2,3.2l0.9,0.9v0.7
		l-0.5,0.3l0.9,3.6l0.3,3.9l1.8,2.8l1.5,6.3l0.7-1.4l-1.7-8l0.7-3.9l-0.6-1.4l0.3-0.5l0.5-2.3l-0.5-4.8l-0.9-0.5l0.3-0.2v-0.6
		l-0.3-0.3l0.5-0.3l-0.5-1.1l-0.3-2.1h-0.6l-1.8,1.5l-1.1-0.7l-0.3,0.3l0.5,1.1l-1,0.3l-0.5-0.5l0.5-0.5v-0.6l0.9-0.8h0.9l0.5-1.6
		l-0.1-0.3l-1.6,1.6v-0.3l0.3-0.3v-0.9l0.6-0.3l-0.6-0.9l-1.3,1.3h-0.6V32l-1.4-0.5L445.3,32.2z M445.6,13.2l0.6-0.2l-0.6-0.3V13.2z
		 M446.2,19.9l0.3,0.7l0.8-0.5l0.3-1.1l-0.6-0.3l-0.5-1.3h-0.5V19.9z M446.2,30.8h0.3v-0.7l-0.3,0.3V30.8z M447,11l1.3,0.6l0.3,0.8
		l0.3-0.9l-0.3-1.3l-1.3,0.3L447,11z M447.3,12.4v-0.2h-0.2L447.3,12.4z M447.3,14.8h1.3V14l-1.5,0.5L447.3,14.8z M448,37.7v0.3
		h-0.3v-0.3H448z M448.2,19.9h0.3v-0.3h-0.3V19.9z M449.5,39.8l-0.2,1.3l-0.9-0.8L449.5,39.8z M449.5,14v-0.5l-0.6-0.3l-0.3,0.3
		L449.5,14z M450.6,36.2l-0.8,0.9h-0.6l0.9-0.9H450.6z M449.5,38.6l-0.2,0.2l0.2-0.8V38.6z M449.5,9.9h0.7l-0.7-0.2V9.9z M451,42.9
		l0.3,0.2h-0.7v-0.2H451z M452,47.3h-0.7l-0.3-0.6l0.5-0.6L452,47.3z M451.9,36.2v0.6l-0.6-0.2l0.2-0.3H451.9z M451.6,37.5l0.3,0.2
		v0.3h-0.3l-0.2-0.3L451.6,37.5z M452.2,41v0.3l-0.3-0.6L452.2,41z M452.2,17.9l1.1,0.6l0.3-0.3l-0.2-0.3h-0.7l-0.6-0.3V17.9z
		 M453.2,16.5l0.3,0.3v-0.3l-0.3-0.2V16.5z M453.2,20.5l0.3,0.1l-0.3-0.5V20.5z M454.9,10.2l0.3,0.7h0.3v0.2l-0.7,0.3v0.3h0.7
		l0.2,0.6l-0.6,0.6l0.3,0.2v0.3h-2.1V13l0.5-0.8l-0.3-0.6l0.7-1.4H454.9z M454,23.3h0.9V22H454V23.3z M454.9,18.5l0.3-0.3h-0.7
		L454.9,18.5z M461.5,14.8h0.9l0.3-0.6l0.6,1.1h1.3L465,16l2.6,1.3v0.8l-1.5,1.5l-0.3-0.2l0.6-2.2h-1.1l-1.3-1.3l-1.5,0.6l-1.1-0.8
		l-0.2-0.6L461.5,14.8z"/>
</g>
</svg>
